<?xml version="1.0" encoding="UTF-8"?>
<!DOCTYPE svg PUBLIC "-//W3C//DTD SVG 1.1//EN" "http://www.w3.org/Graphics/SVG/1.1/DTD/svg11.dtd">
<svg version="1.2" width="233.91mm" height="26.09mm" viewBox="2361 7588 23391 2609" preserveAspectRatio="xMidYMid" fill-rule="evenodd" stroke-width="28.222" stroke-linejoin="round" xmlns="http://www.w3.org/2000/svg" xmlns:ooo="http://xml.openoffice.org/svg/export" xmlns:xlink="http://www.w3.org/1999/xlink" xmlns:presentation="http://sun.com/xmlns/staroffice/presentation" xmlns:smil="http://www.w3.org/2001/SMIL20/" xmlns:anim="urn:oasis:names:tc:opendocument:xmlns:animation:1.0" xml:space="preserve">
 <defs class="EmbeddedBulletChars">
  <g id="bullet-char-template-57356" transform="scale(0.00048828125,-0.00048828125)">
   <path d="M 580,1141 L 1163,571 580,0 -4,571 580,1141 Z"/>
  </g>
  <g id="bullet-char-template-57354" transform="scale(0.00048828125,-0.00048828125)">
   <path d="M 8,1128 L 1137,1128 1137,0 8,0 8,1128 Z"/>
  </g>
  <g id="bullet-char-template-10146" transform="scale(0.00048828125,-0.00048828125)">
   <path d="M 174,0 L 602,739 174,1481 1456,739 174,0 Z M 1358,739 L 309,1346 659,739 1358,739 Z"/>
  </g>
  <g id="bullet-char-template-10132" transform="scale(0.00048828125,-0.00048828125)">
   <path d="M 2015,739 L 1276,0 717,0 1260,543 174,543 174,936 1260,936 717,1481 1274,1481 2015,739 Z"/>
  </g>
  <g id="bullet-char-template-10007" transform="scale(0.00048828125,-0.00048828125)">
   <path d="M 0,-2 C -7,14 -16,27 -25,37 L 356,567 C 262,823 215,952 215,954 215,979 228,992 255,992 264,992 276,990 289,987 310,991 331,999 354,1012 L 381,999 492,748 772,1049 836,1024 860,1049 C 881,1039 901,1025 922,1006 886,937 835,863 770,784 769,783 710,716 594,584 L 774,223 C 774,196 753,168 711,139 L 727,119 C 717,90 699,76 672,76 641,76 570,178 457,381 L 164,-76 C 142,-110 111,-127 72,-127 30,-127 9,-110 8,-76 1,-67 -2,-52 -2,-32 -2,-23 -1,-13 0,-2 Z"/>
  </g>
  <g id="bullet-char-template-10004" transform="scale(0.00048828125,-0.00048828125)">
   <path d="M 285,-33 C 182,-33 111,30 74,156 52,228 41,333 41,471 41,549 55,616 82,672 116,743 169,778 240,778 293,778 328,747 346,684 L 369,508 C 377,444 397,411 428,410 L 1163,1116 C 1174,1127 1196,1133 1229,1133 1271,1133 1292,1118 1292,1087 L 1292,965 C 1292,929 1282,901 1262,881 L 442,47 C 390,-6 338,-33 285,-33 Z"/>
  </g>
  <g id="bullet-char-template-9679" transform="scale(0.00048828125,-0.00048828125)">
   <path d="M 813,0 C 632,0 489,54 383,161 276,268 223,411 223,592 223,773 276,916 383,1023 489,1130 632,1184 813,1184 992,1184 1136,1130 1245,1023 1353,916 1407,772 1407,592 1407,412 1353,268 1245,161 1136,54 992,0 813,0 Z"/>
  </g>
  <g id="bullet-char-template-8226" transform="scale(0.00048828125,-0.00048828125)">
   <path d="M 346,457 C 273,457 209,483 155,535 101,586 74,649 74,723 74,796 101,859 155,911 209,963 273,989 346,989 419,989 480,963 531,910 582,859 608,796 608,723 608,648 583,586 532,535 482,483 420,457 346,457 Z"/>
  </g>
  <g id="bullet-char-template-8211" transform="scale(0.00048828125,-0.00048828125)">
   <path d="M -4,459 L 1135,459 1135,606 -4,606 -4,459 Z"/>
  </g>
  <g id="bullet-char-template-61548" transform="scale(0.00048828125,-0.00048828125)">
   <path d="M 173,740 C 173,903 231,1043 346,1159 462,1274 601,1332 765,1332 928,1332 1067,1274 1183,1159 1299,1043 1357,903 1357,740 1357,577 1299,437 1183,322 1067,206 928,148 765,148 601,148 462,206 346,322 231,437 173,577 173,740 Z"/>
  </g>
 </defs>
 <g class="Page">
  <g class="com.sun.star.drawing.ClosedBezierShape">
   <g id="id3">
    <rect class="BoundingBox" stroke="none" fill="none" x="2361" y="8436" width="375" height="937"/>
    <path fill="rgb(0,0,0)" stroke="none" d="M 2734,9206 C 2734,9226 2687,9259 2592,9304 2498,9349 2434,9372 2399,9372 2389,9372 2385,9369 2385,9363 2385,9357 2390,9349 2401,9340 2412,9332 2425,9323 2438,9314 2452,9305 2466,9291 2480,9271 2494,9251 2502,9228 2507,9202 2511,9173 2514,9064 2514,8874 2514,8821 2510,8775 2504,8737 2497,8698 2488,8668 2477,8649 2466,8629 2455,8615 2444,8606 2433,8597 2421,8592 2409,8592 2407,8592 2404,8593 2400,8594 2396,8596 2392,8597 2388,8598 2384,8599 2379,8600 2375,8601 2371,8602 2368,8602 2366,8601 2363,8600 2362,8598 2362,8594 2362,8583 2374,8565 2398,8540 2421,8515 2451,8491 2487,8469 2524,8447 2556,8436 2584,8436 2608,8436 2629,8445 2648,8463 2666,8481 2680,8504 2689,8533 2698,8561 2705,8585 2709,8604 2712,8622 2715,8641 2716,8658 2719,8687 2721,8776 2723,8924 2724,9071 2727,9161 2733,9193 2734,9196 2734,9201 2734,9206 Z"/>
   </g>
  </g>
  <g class="com.sun.star.drawing.ClosedBezierShape">
   <g id="id4">
    <rect class="BoundingBox" stroke="none" fill="none" x="2427" y="7695" width="487" height="525"/>
    <path fill="rgb(0,0,0)" stroke="none" d="M 2437,8218 C 2431,8218 2428,8216 2428,8211 2428,8205 2451,8167 2497,8097 2543,8026 2589,7957 2636,7889 L 2705,7787 C 2728,7763 2760,7742 2803,7723 2846,7704 2878,7695 2899,7695 2908,7695 2913,7697 2913,7701 2913,7705 2888,7740 2839,7807 2789,7874 2740,7941 2691,8007 L 2617,8105 C 2599,8127 2569,8151 2526,8178 2483,8205 2454,8218 2437,8218 Z"/>
   </g>
  </g>
  <g class="com.sun.star.drawing.ClosedBezierShape">
   <g id="id5">
    <rect class="BoundingBox" stroke="none" fill="none" x="2940" y="8422" width="1611" height="1383"/>
    <path fill="rgb(0,0,0)" stroke="none" d="M 4472,9238 C 4472,9288 4454,9340 4419,9394 4384,9449 4337,9500 4277,9547 4218,9595 4151,9638 4078,9677 4005,9716 3928,9747 3846,9770 3764,9792 3687,9804 3615,9804 3535,9804 3459,9793 3387,9770 3314,9748 3251,9717 3196,9678 3142,9638 3099,9590 3067,9531 3035,9473 3019,9410 3019,9343 3019,9291 3025,9240 3038,9190 3050,9140 3066,9095 3083,9055 3101,9016 3125,8975 3156,8933 3186,8891 3213,8857 3237,8830 3261,8802 3292,8772 3330,8738 3368,8704 3396,8680 3416,8664 3435,8648 3461,8627 3495,8602 3505,8593 3513,8588 3518,8584 3439,8579 3361,8576 3285,8576 3227,8576 3173,8578 3124,8581 3074,8584 3034,8588 3006,8591 2977,8595 2960,8596 2953,8596 2945,8596 2940,8595 2940,8591 2940,8575 2963,8548 3009,8512 3055,8476 3093,8455 3122,8449 3205,8431 3307,8423 3428,8423 3518,8423 3654,8429 3838,8441 4021,8454 4152,8460 4229,8460 4284,8460 4335,8458 4382,8454 4428,8450 4464,8446 4490,8442 4516,8438 4532,8436 4537,8436 4545,8436 4550,8439 4550,8443 4550,8458 4529,8482 4489,8516 4448,8550 4411,8572 4377,8583 4360,8589 4317,8596 4250,8602 4182,8609 4113,8612 4041,8612 3946,8612 3802,8605 3609,8590 3509,8658 3430,8729 3372,8802 3272,8929 3222,9064 3222,9208 3222,9267 3234,9321 3257,9371 3280,9420 3311,9462 3349,9496 3387,9530 3431,9560 3481,9584 3531,9609 3583,9627 3636,9638 3690,9649 3743,9655 3797,9655 3872,9655 3947,9643 4021,9620 4095,9597 4148,9574 4179,9551 4199,9537 4219,9513 4239,9480 4259,9446 4268,9410 4268,9370 4268,9326 4254,9288 4226,9255 4198,9223 4163,9203 4123,9195 4117,9194 4114,9192 4114,9187 4114,9170 4140,9143 4192,9105 4244,9066 4282,9047 4307,9047 4317,9047 4331,9051 4347,9057 4364,9064 4382,9075 4402,9089 4421,9102 4438,9122 4451,9149 4465,9176 4472,9205 4472,9238 Z"/>
   </g>
  </g>
  <g class="com.sun.star.drawing.ClosedBezierShape">
   <g id="id6">
    <rect class="BoundingBox" stroke="none" fill="none" x="3616" y="7695" width="487" height="525"/>
    <path fill="rgb(0,0,0)" stroke="none" d="M 3626,8218 C 3620,8218 3617,8216 3617,8211 3617,8205 3640,8167 3686,8097 3732,8026 3778,7957 3825,7889 L 3894,7787 C 3917,7763 3949,7742 3992,7723 4035,7704 4067,7695 4088,7695 4097,7695 4102,7697 4102,7701 4102,7705 4077,7740 4028,7807 3978,7874 3929,7941 3880,8007 L 3806,8105 C 3788,8127 3758,8151 3715,8178 3672,8205 3643,8218 3626,8218 Z"/>
   </g>
  </g>
  <g class="com.sun.star.drawing.ClosedBezierShape">
   <g id="id7">
    <rect class="BoundingBox" stroke="none" fill="none" x="4620" y="8436" width="1984" height="937"/>
    <path fill="rgb(0,0,0)" stroke="none" d="M 5843,8753 C 5843,8828 5830,8899 5803,8966 5777,9033 5743,9089 5703,9135 5664,9180 5620,9219 5573,9252 5526,9286 5481,9310 5439,9326 5398,9341 5362,9349 5332,9349 5289,9349 5253,9334 5225,9305 5197,9275 5183,9251 5183,9233 5183,9217 5208,9189 5260,9151 5312,9113 5351,9094 5377,9094 5380,9094 5383,9095 5385,9098 5386,9101 5388,9105 5389,9110 5391,9115 5394,9122 5399,9130 5404,9138 5411,9146 5418,9155 5447,9185 5479,9200 5514,9200 5529,9200 5538,9198 5543,9195 5548,9192 5556,9180 5567,9161 5615,9077 5639,8990 5639,8898 5639,8819 5609,8747 5548,8682 5487,8617 5420,8584 5347,8584 5272,8584 5210,8603 5159,8640 5109,8677 5058,8738 5007,8823 5007,8860 5007,8895 5008,8926 5009,8958 5009,8985 5009,9008 5010,9031 5010,9053 5011,9072 5012,9091 5012,9107 5012,9120 5013,9132 5013,9143 5014,9153 5015,9163 5015,9171 5016,9176 5016,9182 5016,9187 5017,9190 5018,9194 5018,9197 5018,9198 5018,9199 5018,9201 5019,9202 5019,9204 5019,9205 5019,9206 5019,9226 4972,9259 4877,9304 4782,9349 4718,9372 4683,9372 4674,9372 4669,9369 4669,9363 4669,9357 4674,9349 4685,9340 4696,9332 4709,9323 4723,9314 4736,9305 4750,9291 4764,9271 4779,9251 4788,9228 4792,9202 4793,9195 4794,9164 4795,9110 4796,9056 4797,9003 4797,8952 L 4798,8877 C 4798,8780 4785,8709 4759,8662 4733,8616 4703,8592 4671,8592 4668,8592 4664,8593 4659,8594 4655,8596 4650,8597 4646,8599 4642,8600 4638,8601 4634,8602 4629,8603 4626,8603 4624,8602 4621,8601 4620,8599 4620,8595 4620,8584 4632,8566 4656,8541 4680,8515 4711,8491 4748,8469 4785,8447 4817,8436 4846,8436 4872,8436 4895,8445 4916,8463 4936,8480 4953,8503 4965,8532 4977,8560 4986,8590 4992,8619 4999,8649 5002,8678 5004,8708 5085,8619 5169,8552 5256,8506 5344,8459 5426,8436 5505,8436 5576,8436 5639,8455 5695,8494 5751,8532 5794,8588 5824,8661 5982,8512 6129,8437 6267,8437 6318,8437 6365,8448 6408,8469 6452,8490 6487,8517 6515,8551 6543,8585 6564,8622 6580,8663 6595,8703 6603,8744 6603,8785 6603,8848 6590,8910 6566,8971 6541,9031 6509,9084 6470,9128 6432,9173 6390,9212 6343,9246 6297,9280 6252,9306 6208,9323 6164,9340 6125,9349 6091,9349 6049,9349 6014,9334 5985,9305 5957,9276 5942,9251 5942,9232 5942,9216 5968,9188 6020,9151 6072,9113 6111,9094 6137,9094 6141,9094 6144,9096 6146,9101 6149,9106 6151,9112 6154,9119 6156,9126 6162,9135 6170,9146 6179,9157 6190,9167 6205,9176 6228,9192 6251,9200 6274,9200 6279,9200 6283,9200 6286,9200 6290,9199 6293,9199 6295,9199 6298,9199 6300,9198 6303,9197 6305,9196 6307,9195 6308,9194 6309,9194 6310,9192 6313,9189 6315,9186 6317,9184 6318,9183 6318,9182 6320,9179 6323,9174 6325,9169 6327,9165 6329,9163 6376,9085 6399,9007 6399,8928 6399,8880 6390,8834 6372,8791 6354,8747 6331,8711 6304,8681 6276,8652 6244,8628 6209,8610 6174,8593 6139,8584 6106,8584 6090,8584 6075,8585 6061,8588 6046,8590 6032,8593 6020,8596 6008,8599 5996,8604 5984,8609 5972,8615 5962,8621 5953,8625 5945,8630 5935,8637 5925,8645 5915,8652 5907,8659 5902,8664 5896,8669 5890,8676 5882,8685 5874,8693 5869,8699 5866,8703 5863,8706 5859,8712 5852,8720 5846,8728 5843,8732 5842,8733 5842,8735 5842,8738 5843,8743 5843,8747 5843,8750 5843,8753 Z"/>
   </g>
  </g>
  <g class="com.sun.star.drawing.ClosedBezierShape">
   <g id="id8">
    <rect class="BoundingBox" stroke="none" fill="none" x="7164" y="7589" width="1039" height="1793"/>
    <path fill="rgb(0,0,0)" stroke="none" d="M 8201,8828 C 8201,8893 8179,8960 8135,9029 8091,9097 8037,9156 7971,9207 7906,9258 7836,9299 7760,9331 7683,9364 7614,9380 7551,9380 7444,9380 7352,9341 7277,9264 7202,9186 7165,9090 7165,8975 7165,8924 7175,8870 7196,8812 7216,8754 7243,8698 7276,8644 7309,8590 7345,8534 7384,8478 7424,8421 7464,8365 7504,8309 7544,8253 7580,8199 7613,8145 7646,8092 7672,8038 7693,7982 7714,7927 7724,7876 7724,7827 7724,7801 7716,7780 7700,7764 7683,7748 7665,7739 7644,7737 7635,7737 7631,7733 7631,7727 7631,7710 7657,7683 7709,7645 7761,7608 7799,7590 7824,7590 7851,7590 7875,7599 7896,7617 7917,7634 7928,7661 7928,7696 7928,7746 7917,7800 7897,7857 7876,7915 7849,7970 7816,8024 7784,8078 7748,8134 7708,8190 7668,8247 7629,8303 7589,8359 7549,8415 7513,8470 7480,8524 7448,8578 7421,8633 7400,8689 7380,8745 7369,8798 7369,8848 7369,8950 7404,9039 7474,9116 7544,9194 7631,9232 7733,9232 7792,9232 7843,9220 7888,9196 7907,9186 7930,9157 7957,9111 7984,9065 7998,9015 7998,8961 7998,8935 7993,8911 7984,8888 7975,8866 7965,8849 7954,8836 7944,8824 7931,8812 7914,8802 7898,8791 7887,8784 7881,8782 7876,8780 7868,8777 7859,8774 L 7857,8773 C 7856,8772 7855,8770 7855,8768 7855,8751 7881,8723 7934,8685 7986,8647 8024,8629 8049,8629 8053,8629 8060,8630 8071,8634 8081,8638 8094,8645 8109,8655 8125,8665 8139,8677 8152,8691 8166,8705 8177,8724 8187,8748 8197,8773 8201,8799 8201,8828 Z"/>
   </g>
  </g>
  <g class="com.sun.star.drawing.ClosedBezierShape">
   <g id="id9">
    <rect class="BoundingBox" stroke="none" fill="none" x="8318" y="8436" width="445" height="1761"/>
    <path fill="rgb(0,0,0)" stroke="none" d="M 8428,8593 C 8425,8593 8421,8594 8415,8595 8410,8597 8405,8598 8400,8600 8396,8602 8391,8603 8387,8604 8382,8605 8379,8605 8376,8604 8373,8603 8372,8601 8372,8598 8372,8586 8384,8568 8409,8543 8434,8517 8465,8493 8503,8470 8541,8448 8574,8436 8603,8436 8623,8436 8640,8442 8655,8454 8669,8466 8681,8483 8691,8506 8700,8529 8708,8553 8713,8578 8719,8604 8724,8635 8726,8672 8729,8710 8731,8744 8732,8773 8732,8803 8733,8838 8733,8880 L 8733,8976 C 8733,9497 8734,9771 8736,9799 8736,9823 8739,9843 8743,9859 8748,9874 8752,9885 8756,9891 8760,9897 8762,9901 8762,9902 8762,9910 8751,9923 8730,9941 8709,9958 8684,9975 8656,9990 8655,9991 8640,10002 8613,10025 8585,10048 8556,10071 8524,10096 8492,10120 8458,10143 8420,10164 8383,10185 8354,10196 8332,10196 8323,10196 8318,10193 8318,10187 8318,10179 8324,10170 8335,10160 8347,10151 8361,10139 8379,10126 8396,10113 8414,10098 8432,10081 8451,10064 8468,10042 8484,10014 8499,9986 8510,9955 8517,9921 8518,9912 8520,9827 8521,9664 8523,9501 8524,9340 8525,9181 L 8526,8942 C 8526,8831 8519,8746 8504,8685 8490,8624 8464,8593 8428,8593 Z"/>
   </g>
  </g>
  <g class="com.sun.star.drawing.ClosedBezierShape">
   <g id="id10">
    <rect class="BoundingBox" stroke="none" fill="none" x="8424" y="7995" width="296" height="298"/>
    <path fill="rgb(0,0,0)" stroke="none" d="M 8572,7996 C 8578,7996 8585,7999 8593,8006 8600,8013 8614,8027 8635,8049 8655,8070 8675,8090 8696,8110 8706,8119 8713,8126 8715,8129 8718,8133 8719,8138 8719,8145 8719,8150 8718,8155 8717,8158 8716,8161 8713,8165 8707,8170 8702,8175 8696,8181 8689,8187 8682,8192 8671,8203 8656,8218 8641,8233 8624,8250 8607,8269 8597,8279 8591,8286 8588,8288 8584,8290 8579,8292 8572,8292 8566,8292 8562,8291 8559,8290 8556,8289 8552,8286 8547,8280 8542,8275 8536,8268 8530,8262 8524,8255 8514,8244 8499,8228 8483,8213 8467,8197 8448,8180 8432,8165 8424,8154 8424,8145 8424,8135 8432,8123 8448,8110 8462,8096 8477,8082 8490,8069 8504,8055 8515,8044 8522,8036 8529,8028 8536,8021 8543,8014 8550,8007 8555,8003 8560,8000 8564,7997 8568,7996 8572,7996 Z"/>
   </g>
  </g>
  <g class="com.sun.star.drawing.ClosedBezierShape">
   <g id="id11">
    <rect class="BoundingBox" stroke="none" fill="none" x="8951" y="8422" width="1611" height="1383"/>
    <path fill="rgb(0,0,0)" stroke="none" d="M 10483,9238 C 10483,9288 10465,9340 10430,9394 10395,9449 10348,9500 10288,9547 10229,9595 10162,9638 10089,9677 10016,9716 9939,9747 9857,9770 9775,9792 9698,9804 9626,9804 9546,9804 9470,9793 9398,9770 9325,9748 9262,9717 9207,9678 9153,9638 9110,9590 9078,9531 9046,9473 9030,9410 9030,9343 9030,9291 9036,9240 9049,9190 9061,9140 9077,9095 9094,9055 9112,9016 9136,8975 9167,8933 9197,8891 9224,8857 9248,8830 9272,8802 9303,8772 9341,8738 9379,8704 9407,8680 9427,8664 9446,8648 9472,8627 9506,8602 9516,8593 9524,8588 9529,8584 9450,8579 9372,8576 9296,8576 9238,8576 9184,8578 9135,8581 9085,8584 9045,8588 9017,8591 8988,8595 8971,8596 8964,8596 8956,8596 8951,8595 8951,8591 8951,8575 8974,8548 9020,8512 9066,8476 9104,8455 9133,8449 9216,8431 9318,8423 9439,8423 9529,8423 9665,8429 9849,8441 10032,8454 10163,8460 10240,8460 10295,8460 10346,8458 10393,8454 10439,8450 10475,8446 10501,8442 10527,8438 10543,8436 10548,8436 10556,8436 10561,8439 10561,8443 10561,8458 10540,8482 10500,8516 10459,8550 10422,8572 10388,8583 10371,8589 10328,8596 10261,8602 10193,8609 10124,8612 10052,8612 9957,8612 9813,8605 9620,8590 9520,8658 9441,8729 9383,8802 9283,8929 9233,9064 9233,9208 9233,9267 9245,9321 9268,9371 9291,9420 9322,9462 9360,9496 9398,9530 9442,9560 9492,9584 9542,9609 9594,9627 9647,9638 9701,9649 9754,9655 9808,9655 9883,9655 9958,9643 10032,9620 10106,9597 10159,9574 10190,9551 10210,9537 10230,9513 10250,9480 10270,9446 10279,9410 10279,9370 10279,9326 10265,9288 10237,9255 10209,9223 10174,9203 10134,9195 10128,9194 10125,9192 10125,9187 10125,9170 10151,9143 10203,9105 10255,9066 10293,9047 10318,9047 10328,9047 10342,9051 10358,9057 10375,9064 10393,9075 10413,9089 10432,9102 10449,9122 10462,9149 10476,9176 10483,9205 10483,9238 Z"/>
   </g>
  </g>
  <g class="com.sun.star.drawing.ClosedBezierShape">
   <g id="id12">
    <rect class="BoundingBox" stroke="none" fill="none" x="9446" y="7714" width="625" height="570"/>
    <path fill="rgb(0,0,0)" stroke="none" d="M 9917,8009 C 9921,8007 9925,8005 9930,8005 9934,8005 9938,8006 9942,8009 9946,8011 9951,8015 9958,8021 9965,8027 9971,8033 9978,8040 9984,8047 9994,8057 10006,8069 10018,8082 10030,8093 10041,8104 10060,8122 10069,8136 10069,8145 10069,8152 10066,8159 10059,8166 10053,8174 10039,8188 10018,8208 9998,8228 9979,8246 9963,8264 9954,8273 9949,8278 9945,8280 9942,8281 9936,8282 9930,8282 9925,8282 9921,8282 9918,8281 9915,8280 9912,8277 9906,8272 9901,8267 9896,8262 9890,8255 9884,8249 9874,8239 9859,8224 9845,8209 9829,8193 9811,8177 9798,8164 9791,8154 9791,8145 9791,8136 9800,8123 9819,8104 9831,8093 9843,8082 9855,8069 9867,8057 9876,8047 9882,8040 9888,8033 9895,8027 9901,8021 9908,8015 9913,8011 9917,8009 Z M 9573,8009 C 9577,8007 9581,8005 9585,8005 9590,8005 9594,8006 9598,8009 9602,8011 9607,8015 9614,8021 9620,8027 9627,8033 9633,8040 9640,8047 9649,8057 9661,8069 9673,8082 9685,8093 9697,8104 9716,8122 9725,8136 9725,8145 9725,8152 9722,8159 9715,8166 9709,8174 9695,8188 9674,8208 9654,8228 9635,8246 9618,8264 9610,8273 9604,8278 9601,8280 9598,8281 9593,8282 9586,8282 9582,8282 9578,8282 9575,8281 9572,8280 9568,8277 9563,8272 9558,8267 9552,8262 9547,8255 9541,8249 9531,8239 9516,8224 9502,8209 9485,8193 9468,8177 9454,8164 9447,8153 9447,8144 9447,8136 9456,8123 9475,8104 9486,8093 9498,8082 9510,8069 9522,8057 9532,8047 9538,8040 9544,8033 9550,8027 9557,8021 9563,8015 9569,8011 9573,8009 Z M 9758,7715 C 9765,7715 9772,7717 9779,7723 9786,7729 9798,7741 9817,7761 9836,7781 9853,7798 9869,7813 9888,7832 9898,7845 9898,7853 9898,7857 9896,7862 9893,7866 9891,7871 9886,7876 9880,7883 9874,7890 9867,7897 9859,7904 9852,7911 9842,7921 9829,7933 9816,7946 9803,7959 9791,7972 9782,7981 9776,7987 9773,7989 9770,7991 9765,7992 9758,7992 9753,7992 9749,7991 9747,7990 9744,7989 9740,7986 9735,7981 9730,7977 9724,7971 9718,7965 9712,7959 9702,7948 9688,7933 9673,7919 9657,7903 9639,7886 9626,7874 9619,7863 9619,7853 9619,7845 9629,7832 9647,7813 9659,7802 9671,7790 9683,7778 9695,7766 9704,7757 9710,7750 9717,7743 9723,7737 9730,7731 9736,7725 9741,7721 9746,7718 9750,7716 9754,7715 9758,7715 Z"/>
   </g>
  </g>
  <g class="com.sun.star.drawing.ClosedBezierShape">
   <g id="id13">
    <rect class="BoundingBox" stroke="none" fill="none" x="11026" y="8422" width="1611" height="1383"/>
    <path fill="rgb(0,0,0)" stroke="none" d="M 12558,9238 C 12558,9288 12540,9340 12505,9394 12470,9449 12423,9500 12363,9547 12304,9595 12237,9638 12164,9677 12091,9716 12014,9747 11932,9770 11850,9792 11773,9804 11701,9804 11621,9804 11545,9793 11473,9770 11400,9748 11337,9717 11282,9678 11228,9638 11185,9590 11153,9531 11121,9473 11105,9410 11105,9343 11105,9291 11111,9240 11124,9190 11136,9140 11152,9095 11169,9055 11187,9016 11211,8975 11242,8933 11272,8891 11299,8857 11323,8830 11347,8802 11378,8772 11416,8738 11454,8704 11482,8680 11502,8664 11521,8648 11547,8627 11581,8602 11591,8593 11599,8588 11604,8584 11525,8579 11447,8576 11371,8576 11313,8576 11259,8578 11210,8581 11160,8584 11120,8588 11092,8591 11063,8595 11046,8596 11039,8596 11031,8596 11026,8595 11026,8591 11026,8575 11049,8548 11095,8512 11141,8476 11179,8455 11208,8449 11291,8431 11393,8423 11514,8423 11604,8423 11740,8429 11924,8441 12107,8454 12238,8460 12315,8460 12370,8460 12421,8458 12468,8454 12514,8450 12550,8446 12576,8442 12602,8438 12618,8436 12623,8436 12631,8436 12636,8439 12636,8443 12636,8458 12615,8482 12575,8516 12534,8550 12497,8572 12463,8583 12446,8589 12403,8596 12336,8602 12268,8609 12199,8612 12127,8612 12032,8612 11888,8605 11695,8590 11595,8658 11516,8729 11458,8802 11358,8929 11308,9064 11308,9208 11308,9267 11320,9321 11343,9371 11366,9420 11397,9462 11435,9496 11473,9530 11517,9560 11567,9584 11617,9609 11669,9627 11722,9638 11776,9649 11829,9655 11883,9655 11958,9655 12033,9643 12107,9620 12181,9597 12234,9574 12265,9551 12285,9537 12305,9513 12325,9480 12345,9446 12354,9410 12354,9370 12354,9326 12340,9288 12312,9255 12284,9223 12249,9203 12209,9195 12203,9194 12200,9192 12200,9187 12200,9170 12226,9143 12278,9105 12330,9066 12368,9047 12393,9047 12403,9047 12417,9051 12433,9057 12450,9064 12468,9075 12488,9089 12507,9102 12524,9122 12537,9149 12551,9176 12558,9205 12558,9238 Z"/>
   </g>
  </g>
  <g class="com.sun.star.drawing.ClosedBezierShape">
   <g id="id14">
    <rect class="BoundingBox" stroke="none" fill="none" x="11597" y="7675" width="575" height="851"/>
    <path fill="rgb(0,0,0)" stroke="none" d="M 11614,8038 C 11603,8038 11597,8016 11597,7970 11597,7936 11608,7903 11630,7870 11652,7838 11692,7802 11750,7763 11840,7705 11923,7675 11999,7675 12051,7675 12092,7689 12124,7715 12155,7742 12170,7777 12170,7821 12170,7867 12148,7929 12105,8005 12062,8082 12000,8176 11918,8288 11909,8300 11894,8320 11874,8349 11854,8378 11838,8401 11826,8416 11815,8432 11802,8449 11786,8468 11770,8488 11757,8502 11747,8511 11736,8520 11727,8524 11720,8524 11716,8524 11713,8521 11713,8515 11713,8502 11721,8480 11737,8451 11754,8421 11773,8389 11796,8354 11819,8318 11844,8271 11873,8212 11902,8154 11927,8094 11948,8034 11958,8004 11963,7975 11963,7948 11963,7865 11911,7821 11805,7816 11803,7828 11802,7839 11802,7848 11802,7859 11803,7870 11805,7881 L 11809,7899 C 11809,7915 11783,7943 11732,7981 11680,8019 11641,8038 11614,8038 Z"/>
   </g>
  </g>
  <g class="com.sun.star.drawing.ClosedBezierShape">
   <g id="id15">
    <rect class="BoundingBox" stroke="none" fill="none" x="12706" y="8436" width="2067" height="937"/>
    <path fill="rgb(0,0,0)" stroke="none" d="M 13584,8437 C 13618,8437 13651,8443 13683,8455 13714,8467 13739,8481 13758,8495 13778,8509 13797,8528 13816,8551 13835,8574 13848,8592 13854,8603 13861,8615 13869,8629 13878,8646 13905,8622 13928,8602 13948,8586 13968,8569 13997,8548 14037,8521 14076,8494 14118,8473 14162,8458 14206,8444 14250,8436 14294,8436 14351,8436 14404,8454 14453,8489 14502,8524 14540,8568 14566,8620 14593,8673 14606,8726 14606,8779 14606,8819 14598,8859 14581,8901 14564,8943 14542,8982 14515,9018 14487,9053 14459,9085 14429,9113 14400,9142 14370,9166 14339,9188 14415,9189 14461,9190 14476,9190 14518,9190 14550,9188 14572,9186 14594,9183 14609,9180 14616,9176 14624,9173 14635,9166 14650,9157 14703,9122 14739,9104 14760,9104 14768,9104 14771,9107 14771,9112 14771,9136 14715,9183 14602,9254 14546,9289 14500,9314 14463,9329 14427,9345 14393,9352 14362,9352 14264,9352 14101,9348 13872,9341 13643,9334 13465,9330 13337,9330 13173,9330 13016,9335 12867,9345 12825,9363 12793,9372 12771,9372 12760,9372 12755,9369 12755,9363 12755,9357 12760,9349 12771,9340 12782,9332 12795,9323 12809,9314 12822,9305 12836,9291 12850,9271 12865,9251 12874,9228 12878,9202 12879,9195 12880,9164 12881,9110 12882,9056 12883,9003 12883,8952 L 12884,8877 C 12884,8780 12871,8709 12845,8662 12819,8616 12789,8592 12757,8592 12754,8592 12750,8593 12745,8594 12741,8596 12736,8597 12732,8599 12728,8600 12724,8601 12720,8602 12715,8603 12712,8603 12710,8602 12707,8601 12706,8599 12706,8595 12706,8584 12718,8566 12742,8541 12766,8515 12797,8491 12834,8469 12871,8447 12903,8436 12932,8436 12957,8436 12980,8445 13000,8462 13021,8478 13037,8501 13049,8528 13061,8556 13070,8584 13077,8612 13083,8641 13088,8670 13090,8699 13154,8628 13230,8566 13318,8515 13405,8463 13494,8437 13584,8437 Z M 13696,8896 C 13696,8818 13667,8747 13609,8682 13551,8617 13485,8584 13412,8584 13393,8584 13374,8586 13356,8589 13338,8593 13323,8596 13309,8600 13296,8603 13282,8610 13266,8620 13251,8630 13239,8637 13231,8642 13222,8648 13211,8658 13198,8673 13184,8689 13175,8699 13170,8705 13165,8711 13155,8723 13142,8743 13129,8763 13121,8776 13118,8780 13115,8785 13107,8799 13093,8821 13094,9039 13098,9164 13103,9194 13240,9185 13390,9180 13554,9178 13579,9152 13600,9129 13617,9109 13634,9088 13652,9058 13670,9018 13687,8977 13696,8937 13696,8896 Z M 14122,8584 C 14093,8584 14068,8587 14047,8593 14026,8599 14006,8609 13989,8623 13972,8637 13957,8652 13945,8667 13932,8682 13917,8703 13899,8730 13900,8744 13901,8754 13901,8762 13901,8797 13895,8833 13883,8869 13870,8906 13855,8939 13836,8969 13817,8998 13796,9027 13772,9056 13748,9085 13725,9108 13704,9128 13683,9147 13663,9164 13644,9178 13702,9178 13907,9181 14258,9187 14301,9143 14331,9108 14348,9083 14384,9029 14401,8971 14401,8911 14401,8832 14373,8758 14315,8688 14258,8619 14193,8584 14122,8584 Z"/>
   </g>
  </g>
  <g class="com.sun.star.drawing.ClosedBezierShape">
   <g id="id16">
    <rect class="BoundingBox" stroke="none" fill="none" x="13624" y="7695" width="487" height="525"/>
    <path fill="rgb(0,0,0)" stroke="none" d="M 13634,8218 C 13628,8218 13625,8216 13625,8211 13625,8205 13648,8167 13694,8097 13740,8026 13786,7957 13833,7889 L 13902,7787 C 13925,7763 13957,7742 14000,7723 14043,7704 14075,7695 14096,7695 14105,7695 14110,7697 14110,7701 14110,7705 14085,7740 14036,7807 13986,7874 13937,7941 13888,8007 L 13814,8105 C 13796,8127 13766,8151 13723,8178 13680,8205 13651,8218 13634,8218 Z"/>
   </g>
  </g>
  <g class="com.sun.star.drawing.ClosedBezierShape">
   <g id="id17">
    <rect class="BoundingBox" stroke="none" fill="none" x="14785" y="8436" width="1984" height="937"/>
    <path fill="rgb(0,0,0)" stroke="none" d="M 16008,8753 C 16008,8828 15995,8899 15968,8966 15942,9033 15908,9089 15868,9135 15829,9180 15785,9219 15738,9252 15691,9286 15646,9310 15604,9326 15563,9341 15527,9349 15497,9349 15454,9349 15418,9334 15390,9305 15362,9275 15348,9251 15348,9233 15348,9217 15373,9189 15425,9151 15477,9113 15516,9094 15542,9094 15545,9094 15548,9095 15550,9098 15551,9101 15553,9105 15554,9110 15556,9115 15559,9122 15564,9130 15569,9138 15576,9146 15583,9155 15612,9185 15644,9200 15679,9200 15694,9200 15703,9198 15708,9195 15713,9192 15721,9180 15732,9161 15780,9077 15804,8990 15804,8898 15804,8819 15774,8747 15713,8682 15652,8617 15585,8584 15512,8584 15437,8584 15375,8603 15324,8640 15274,8677 15223,8738 15172,8823 15172,8860 15172,8895 15173,8926 15174,8958 15174,8985 15174,9008 15175,9031 15175,9053 15176,9072 15177,9091 15177,9107 15177,9120 15178,9132 15178,9143 15179,9153 15180,9163 15180,9171 15181,9176 15181,9182 15181,9187 15182,9190 15183,9194 15183,9197 15183,9198 15183,9199 15183,9201 15184,9202 15184,9204 15184,9205 15184,9206 15184,9226 15137,9259 15042,9304 14947,9349 14883,9372 14848,9372 14839,9372 14834,9369 14834,9363 14834,9357 14839,9349 14850,9340 14861,9332 14874,9323 14888,9314 14901,9305 14915,9291 14929,9271 14944,9251 14953,9228 14957,9202 14958,9195 14959,9164 14960,9110 14961,9056 14962,9003 14962,8952 L 14963,8877 C 14963,8780 14950,8709 14924,8662 14898,8616 14868,8592 14836,8592 14833,8592 14829,8593 14824,8594 14820,8596 14815,8597 14811,8599 14807,8600 14803,8601 14799,8602 14794,8603 14791,8603 14789,8602 14786,8601 14785,8599 14785,8595 14785,8584 14797,8566 14821,8541 14845,8515 14876,8491 14913,8469 14950,8447 14982,8436 15011,8436 15037,8436 15060,8445 15081,8463 15101,8480 15118,8503 15130,8532 15142,8560 15151,8590 15157,8619 15164,8649 15167,8678 15169,8708 15250,8619 15334,8552 15421,8506 15509,8459 15591,8436 15670,8436 15741,8436 15804,8455 15860,8494 15916,8532 15959,8588 15989,8661 16147,8512 16294,8437 16432,8437 16483,8437 16530,8448 16573,8469 16617,8490 16652,8517 16680,8551 16708,8585 16729,8622 16745,8663 16760,8703 16768,8744 16768,8785 16768,8848 16755,8910 16731,8971 16706,9031 16674,9084 16635,9128 16597,9173 16555,9212 16508,9246 16462,9280 16417,9306 16373,9323 16329,9340 16290,9349 16256,9349 16214,9349 16179,9334 16150,9305 16122,9276 16107,9251 16107,9232 16107,9216 16133,9188 16185,9151 16237,9113 16276,9094 16302,9094 16306,9094 16309,9096 16311,9101 16314,9106 16316,9112 16319,9119 16321,9126 16327,9135 16335,9146 16344,9157 16355,9167 16370,9176 16393,9192 16416,9200 16439,9200 16444,9200 16448,9200 16451,9200 16455,9199 16458,9199 16460,9199 16463,9199 16465,9198 16468,9197 16470,9196 16472,9195 16473,9194 16474,9194 16475,9192 16478,9189 16480,9186 16482,9184 16483,9183 16483,9182 16485,9179 16488,9174 16490,9169 16492,9165 16494,9163 16541,9085 16564,9007 16564,8928 16564,8880 16555,8834 16537,8791 16519,8747 16496,8711 16469,8681 16441,8652 16409,8628 16374,8610 16339,8593 16304,8584 16271,8584 16255,8584 16240,8585 16226,8588 16211,8590 16197,8593 16185,8596 16173,8599 16161,8604 16149,8609 16137,8615 16127,8621 16118,8625 16110,8630 16100,8637 16090,8645 16080,8652 16072,8659 16067,8664 16061,8669 16055,8676 16047,8685 16039,8693 16034,8699 16031,8703 16028,8706 16024,8712 16017,8720 16011,8728 16008,8732 16007,8733 16007,8735 16007,8738 16008,8743 16008,8747 16008,8750 16008,8753 Z"/>
   </g>
  </g>
  <g class="com.sun.star.drawing.ClosedBezierShape">
   <g id="id18">
    <rect class="BoundingBox" stroke="none" fill="none" x="14981" y="9468" width="1788" height="159"/>
    <path fill="rgb(0,0,0)" stroke="none" d="M 16063,9480 C 16178,9480 16305,9478 16445,9474 16585,9470 16666,9468 16686,9468 16740,9468 16767,9472 16767,9478 16767,9495 16742,9523 16691,9564 16640,9604 16601,9624 16574,9624 16570,9624 16559,9624 16541,9623 16524,9623 16499,9622 16468,9621 16437,9620 16404,9620 16368,9620 16325,9620 16274,9621 16214,9623 16153,9624 16083,9625 16004,9625 15905,9625 15778,9624 15624,9622 15469,9620 15376,9619 15343,9619 15279,9619 15222,9619 15172,9620 15122,9621 15083,9621 15056,9622 15029,9623 15012,9623 15006,9623 14995,9623 14988,9623 14986,9622 14983,9621 14982,9618 14982,9615 14982,9601 15001,9578 15039,9546 15078,9514 15114,9492 15147,9478 15158,9474 15188,9472 15237,9472 15245,9472 15339,9473 15516,9476 15694,9478 15876,9480 16063,9480 Z"/>
   </g>
  </g>
  <g class="com.sun.star.drawing.ClosedBezierShape">
   <g id="id19">
    <rect class="BoundingBox" stroke="none" fill="none" x="17334" y="8436" width="375" height="937"/>
    <path fill="rgb(0,0,0)" stroke="none" d="M 17707,9206 C 17707,9226 17660,9259 17565,9304 17471,9349 17407,9372 17372,9372 17362,9372 17358,9369 17358,9363 17358,9357 17363,9349 17374,9340 17385,9332 17398,9323 17411,9314 17425,9305 17439,9291 17453,9271 17467,9251 17475,9228 17480,9202 17484,9173 17487,9064 17487,8874 17487,8821 17483,8775 17477,8737 17470,8698 17461,8668 17450,8649 17439,8629 17428,8615 17417,8606 17406,8597 17394,8592 17382,8592 17380,8592 17377,8593 17373,8594 17369,8596 17365,8597 17361,8598 17357,8599 17352,8600 17348,8601 17344,8602 17341,8602 17339,8601 17336,8600 17335,8598 17335,8594 17335,8583 17347,8565 17371,8540 17394,8515 17424,8491 17460,8469 17497,8447 17529,8436 17557,8436 17581,8436 17602,8445 17621,8463 17639,8481 17653,8504 17662,8533 17671,8561 17678,8585 17682,8604 17685,8622 17688,8641 17689,8658 17692,8687 17694,8776 17696,8924 17697,9071 17700,9161 17706,9193 17707,9196 17707,9201 17707,9206 Z"/>
   </g>
  </g>
  <g class="com.sun.star.drawing.ClosedBezierShape">
   <g id="id20">
    <rect class="BoundingBox" stroke="none" fill="none" x="17435" y="7670" width="824" height="866"/>
    <path fill="rgb(0,0,0)" stroke="none" d="M 17445,8534 C 17439,8534 17436,8530 17436,8520 17436,8496 17453,8446 17489,8369 17516,8308 17542,8255 17566,8208 17589,8161 17617,8109 17649,8051 17681,7993 17713,7943 17743,7901 17774,7860 17807,7820 17842,7783 17876,7747 17912,7719 17950,7699 17987,7680 18024,7670 18061,7670 18116,7670 18163,7690 18201,7731 18239,7771 18258,7819 18258,7875 18258,7914 18245,7950 18221,7984 18197,8018 18167,8046 18133,8066 18099,8087 18066,8103 18034,8115 18003,8127 17978,8133 17960,8133 17949,8133 17943,8131 17943,8126 17943,8120 17951,8110 17966,8098 17981,8085 18000,8073 18023,8061 18030,8058 18037,8049 18044,8035 18051,8021 18054,8005 18054,7986 18054,7953 18043,7925 18022,7901 18000,7877 17973,7865 17941,7865 17897,7865 17851,7888 17806,7933 17761,7979 17720,8035 17684,8101 17648,8167 17615,8232 17584,8298 17554,8364 17526,8420 17502,8466 17477,8512 17458,8534 17445,8534 Z"/>
   </g>
  </g>
  <g class="com.sun.star.drawing.ClosedBezierShape">
   <g id="id21">
    <rect class="BoundingBox" stroke="none" fill="none" x="17917" y="8436" width="2067" height="937"/>
    <path fill="rgb(0,0,0)" stroke="none" d="M 18795,8437 C 18829,8437 18862,8443 18894,8455 18925,8467 18950,8481 18969,8495 18989,8509 19008,8528 19027,8551 19046,8574 19059,8592 19065,8603 19072,8615 19080,8629 19089,8646 19116,8622 19139,8602 19159,8586 19179,8569 19208,8548 19248,8521 19287,8494 19329,8473 19373,8458 19417,8444 19461,8436 19505,8436 19562,8436 19615,8454 19664,8489 19713,8524 19751,8568 19777,8620 19804,8673 19817,8726 19817,8779 19817,8819 19809,8859 19792,8901 19775,8943 19753,8982 19726,9018 19698,9053 19670,9085 19640,9113 19611,9142 19581,9166 19550,9188 19626,9189 19672,9190 19687,9190 19729,9190 19761,9188 19783,9186 19805,9183 19820,9180 19827,9176 19835,9173 19846,9166 19861,9157 19914,9122 19950,9104 19971,9104 19979,9104 19982,9107 19982,9112 19982,9136 19926,9183 19813,9254 19757,9289 19711,9314 19674,9329 19638,9345 19604,9352 19573,9352 19475,9352 19312,9348 19083,9341 18854,9334 18676,9330 18548,9330 18384,9330 18227,9335 18078,9345 18036,9363 18004,9372 17982,9372 17971,9372 17966,9369 17966,9363 17966,9357 17971,9349 17982,9340 17993,9332 18006,9323 18020,9314 18033,9305 18047,9291 18061,9271 18076,9251 18085,9228 18089,9202 18090,9195 18091,9164 18092,9110 18093,9056 18094,9003 18094,8952 L 18095,8877 C 18095,8780 18082,8709 18056,8662 18030,8616 18000,8592 17968,8592 17965,8592 17961,8593 17956,8594 17952,8596 17947,8597 17943,8599 17939,8600 17935,8601 17931,8602 17926,8603 17923,8603 17921,8602 17918,8601 17917,8599 17917,8595 17917,8584 17929,8566 17953,8541 17977,8515 18008,8491 18045,8469 18082,8447 18114,8436 18143,8436 18168,8436 18191,8445 18211,8462 18232,8478 18248,8501 18260,8528 18272,8556 18281,8584 18288,8612 18294,8641 18299,8670 18301,8699 18365,8628 18441,8566 18529,8515 18616,8463 18705,8437 18795,8437 Z M 18907,8896 C 18907,8818 18878,8747 18820,8682 18762,8617 18696,8584 18623,8584 18604,8584 18585,8586 18567,8589 18549,8593 18534,8596 18520,8600 18507,8603 18493,8610 18477,8620 18462,8630 18450,8637 18442,8642 18433,8648 18422,8658 18409,8673 18395,8689 18386,8699 18381,8705 18376,8711 18366,8723 18353,8743 18340,8763 18332,8776 18329,8780 18326,8785 18318,8799 18304,8821 18305,9039 18309,9164 18314,9194 18451,9185 18601,9180 18765,9178 18790,9152 18811,9129 18828,9109 18845,9088 18863,9058 18881,9018 18898,8977 18907,8937 18907,8896 Z M 19333,8584 C 19304,8584 19279,8587 19258,8593 19237,8599 19217,8609 19200,8623 19183,8637 19168,8652 19156,8667 19143,8682 19128,8703 19110,8730 19111,8744 19112,8754 19112,8762 19112,8797 19106,8833 19094,8869 19081,8906 19066,8939 19047,8969 19028,8998 19007,9027 18983,9056 18959,9085 18936,9108 18915,9128 18894,9147 18874,9164 18855,9178 18913,9178 19118,9181 19469,9187 19512,9143 19542,9108 19559,9083 19595,9029 19612,8971 19612,8911 19612,8832 19584,8758 19526,8688 19469,8619 19404,8584 19333,8584 Z"/>
   </g>
  </g>
  <g class="com.sun.star.drawing.ClosedBezierShape">
   <g id="id22">
    <rect class="BoundingBox" stroke="none" fill="none" x="18835" y="7695" width="487" height="525"/>
    <path fill="rgb(0,0,0)" stroke="none" d="M 18845,8218 C 18839,8218 18836,8216 18836,8211 18836,8205 18859,8167 18905,8097 18951,8026 18997,7957 19044,7889 L 19113,7787 C 19136,7763 19168,7742 19211,7723 19254,7704 19286,7695 19307,7695 19316,7695 19321,7697 19321,7701 19321,7705 19296,7740 19247,7807 19197,7874 19148,7941 19099,8007 L 19025,8105 C 19007,8127 18977,8151 18934,8178 18891,8205 18862,8218 18845,8218 Z"/>
   </g>
  </g>
  <g class="com.sun.star.drawing.ClosedBezierShape">
   <g id="id23">
    <rect class="BoundingBox" stroke="none" fill="none" x="19969" y="7588" width="1963" height="1791"/>
    <path fill="rgb(0,0,0)" stroke="none" d="M 20342,9215 C 20342,9234 20292,9266 20192,9311 20092,9356 20030,9378 20005,9378 19996,9378 19991,9375 19991,9369 19991,9363 19996,9356 20007,9347 20017,9339 20028,9331 20041,9323 20053,9315 20060,9310 20061,9308 20070,9298 20077,9289 20083,9281 20089,9273 20094,9264 20098,9256 20102,9248 20106,9236 20107,9221 20109,9207 20111,9192 20112,9179 20113,9166 20114,9144 20115,9115 20115,9086 20115,9058 20115,9032 20115,9006 20115,8968 20115,8917 20115,8866 20115,8817 20116,8770 20120,8361 20122,8133 20122,8088 20122,7980 20115,7897 20102,7837 20088,7777 20062,7747 20025,7747 20022,7747 20018,7747 20013,7749 20007,7750 20002,7752 19998,7753 19993,7755 19989,7757 19984,7758 19980,7759 19976,7759 19973,7758 19971,7757 19969,7754 19969,7751 19969,7739 19982,7720 20008,7694 20033,7669 20065,7645 20103,7622 20141,7600 20173,7589 20201,7589 20267,7589 20307,7663 20321,7811 20327,7876 20331,8174 20332,8707 20414,8619 20499,8552 20585,8506 20672,8459 20755,8436 20833,8436 20904,8436 20968,8455 21023,8493 21079,8531 21122,8587 21152,8661 21309,8512 21456,8437 21594,8437 21645,8437 21692,8448 21736,8469 21779,8490 21815,8517 21842,8551 21870,8585 21891,8622 21907,8663 21922,8703 21930,8744 21930,8785 21930,8848 21918,8910 21893,8971 21868,9031 21836,9084 21798,9128 21759,9173 21717,9212 21671,9246 21625,9280 21579,9306 21535,9323 21491,9340 21452,9349 21419,9349 21377,9349 21341,9334 21312,9305 21283,9276 21269,9251 21269,9232 21269,9216 21295,9188 21347,9151 21399,9113 21437,9094 21463,9094 21467,9094 21470,9096 21473,9101 21475,9106 21478,9112 21480,9119 21482,9126 21488,9135 21497,9146 21505,9157 21517,9167 21531,9176 21555,9192 21578,9200 21602,9200 21607,9200 21611,9200 21615,9200 21618,9200 21622,9200 21625,9199 21629,9198 21631,9197 21632,9197 21633,9196 21635,9194 21638,9191 21640,9188 21642,9186 21643,9185 21644,9184 21645,9181 21649,9175 21652,9170 21654,9166 21655,9163 21702,9085 21726,9007 21726,8928 21726,8880 21717,8834 21699,8791 21681,8747 21658,8711 21630,8681 21602,8652 21570,8628 21535,8610 21500,8593 21466,8584 21432,8584 21415,8584 21398,8585 21382,8588 21367,8590 21352,8594 21338,8599 21324,8604 21312,8609 21301,8614 21290,8619 21278,8626 21267,8634 21256,8643 21247,8650 21240,8655 21233,8660 21225,8668 21215,8678 21206,8688 21200,8695 21197,8699 21194,8702 21188,8709 21181,8718 L 21169,8733 21169,8753 C 21169,8828 21156,8899 21130,8966 21103,9033 21070,9089 21030,9135 20990,9180 20946,9219 20899,9252 20852,9286 20807,9310 20766,9326 20724,9341 20688,9349 20659,9349 20615,9349 20580,9334 20551,9305 20523,9275 20509,9251 20509,9233 20509,9217 20535,9189 20587,9151 20639,9113 20678,9094 20704,9094 20708,9094 20710,9095 20712,9098 20714,9101 20715,9105 20717,9110 20718,9115 20721,9122 20726,9130 20732,9138 20738,9146 20746,9155 20775,9185 20807,9200 20842,9200 20856,9200 20866,9198 20870,9195 20875,9192 20882,9180 20893,9161 20942,9077 20966,8990 20966,8898 20966,8818 20935,8746 20875,8681 20814,8616 20747,8584 20674,8584 20601,8584 20538,8603 20486,8640 20434,8678 20383,8739 20332,8824 20333,9051 20336,9181 20342,9212 20342,9213 20342,9214 20342,9215 Z"/>
   </g>
  </g>
  <g class="com.sun.star.drawing.ClosedBezierShape">
   <g id="id24">
    <rect class="BoundingBox" stroke="none" fill="none" x="20913" y="7995" width="296" height="298"/>
    <path fill="rgb(0,0,0)" stroke="none" d="M 21061,7996 C 21067,7996 21074,7999 21082,8006 21089,8013 21103,8027 21124,8049 21144,8070 21164,8090 21185,8110 21195,8119 21202,8126 21204,8129 21207,8133 21208,8138 21208,8145 21208,8150 21207,8155 21206,8158 21205,8161 21202,8165 21196,8170 21191,8175 21185,8181 21178,8187 21171,8192 21160,8203 21145,8218 21130,8233 21113,8250 21096,8269 21086,8279 21080,8286 21077,8288 21073,8290 21068,8292 21061,8292 21055,8292 21051,8291 21048,8290 21045,8289 21041,8286 21036,8280 21031,8275 21025,8268 21019,8262 21013,8255 21003,8244 20988,8228 20972,8213 20956,8197 20937,8180 20921,8165 20913,8154 20913,8145 20913,8135 20921,8123 20937,8110 20951,8096 20966,8082 20979,8069 20993,8055 21004,8044 21011,8036 21018,8028 21025,8021 21032,8014 21039,8007 21044,8003 21049,8000 21053,7997 21057,7996 21061,7996 Z"/>
   </g>
  </g>
  <g class="com.sun.star.drawing.ClosedBezierShape">
   <g id="id25">
    <rect class="BoundingBox" stroke="none" fill="none" x="22097" y="8436" width="375" height="937"/>
    <path fill="rgb(0,0,0)" stroke="none" d="M 22470,9206 C 22470,9226 22423,9259 22328,9304 22234,9349 22170,9372 22135,9372 22125,9372 22121,9369 22121,9363 22121,9357 22126,9349 22137,9340 22148,9332 22161,9323 22174,9314 22188,9305 22202,9291 22216,9271 22230,9251 22238,9228 22243,9202 22247,9173 22250,9064 22250,8874 22250,8821 22246,8775 22240,8737 22233,8698 22224,8668 22213,8649 22202,8629 22191,8615 22180,8606 22169,8597 22157,8592 22145,8592 22143,8592 22140,8593 22136,8594 22132,8596 22128,8597 22124,8598 22120,8599 22115,8600 22111,8601 22107,8602 22104,8602 22102,8601 22099,8600 22098,8598 22098,8594 22098,8583 22110,8565 22134,8540 22157,8515 22187,8491 22223,8469 22260,8447 22292,8436 22320,8436 22344,8436 22365,8445 22384,8463 22402,8481 22416,8504 22425,8533 22434,8561 22441,8585 22445,8604 22448,8622 22451,8641 22452,8658 22455,8687 22457,8776 22459,8924 22460,9071 22463,9161 22469,9193 22470,9196 22470,9201 22470,9206 Z"/>
   </g>
  </g>
  <g class="com.sun.star.drawing.ClosedBezierShape">
   <g id="id26">
    <rect class="BoundingBox" stroke="none" fill="none" x="22162" y="7695" width="487" height="525"/>
    <path fill="rgb(0,0,0)" stroke="none" d="M 22172,8218 C 22166,8218 22163,8216 22163,8211 22163,8205 22186,8167 22232,8097 22278,8026 22324,7957 22371,7889 L 22440,7787 C 22463,7763 22495,7742 22538,7723 22581,7704 22613,7695 22634,7695 22643,7695 22648,7697 22648,7701 22648,7705 22623,7740 22574,7807 22524,7874 22475,7941 22426,8007 L 22352,8105 C 22334,8127 22304,8151 22261,8178 22218,8205 22189,8218 22172,8218 Z"/>
   </g>
  </g>
  <g class="com.sun.star.drawing.ClosedBezierShape">
   <g id="id27">
    <rect class="BoundingBox" stroke="none" fill="none" x="22676" y="8422" width="1611" height="1383"/>
    <path fill="rgb(0,0,0)" stroke="none" d="M 24208,9238 C 24208,9288 24190,9340 24155,9394 24120,9449 24073,9500 24013,9547 23954,9595 23887,9638 23814,9677 23741,9716 23664,9747 23582,9770 23500,9792 23423,9804 23351,9804 23271,9804 23195,9793 23123,9770 23050,9748 22987,9717 22932,9678 22878,9638 22835,9590 22803,9531 22771,9473 22755,9410 22755,9343 22755,9291 22761,9240 22774,9190 22786,9140 22802,9095 22819,9055 22837,9016 22861,8975 22892,8933 22922,8891 22949,8857 22973,8830 22997,8802 23028,8772 23066,8738 23104,8704 23132,8680 23152,8664 23171,8648 23197,8627 23231,8602 23241,8593 23249,8588 23254,8584 23175,8579 23097,8576 23021,8576 22963,8576 22909,8578 22860,8581 22810,8584 22770,8588 22742,8591 22713,8595 22696,8596 22689,8596 22681,8596 22676,8595 22676,8591 22676,8575 22699,8548 22745,8512 22791,8476 22829,8455 22858,8449 22941,8431 23043,8423 23164,8423 23254,8423 23390,8429 23574,8441 23757,8454 23888,8460 23965,8460 24020,8460 24071,8458 24118,8454 24164,8450 24200,8446 24226,8442 24252,8438 24268,8436 24273,8436 24281,8436 24286,8439 24286,8443 24286,8458 24265,8482 24225,8516 24184,8550 24147,8572 24113,8583 24096,8589 24053,8596 23986,8602 23918,8609 23849,8612 23777,8612 23682,8612 23538,8605 23345,8590 23245,8658 23166,8729 23108,8802 23008,8929 22958,9064 22958,9208 22958,9267 22970,9321 22993,9371 23016,9420 23047,9462 23085,9496 23123,9530 23167,9560 23217,9584 23267,9609 23319,9627 23372,9638 23426,9649 23479,9655 23533,9655 23608,9655 23683,9643 23757,9620 23831,9597 23884,9574 23915,9551 23935,9537 23955,9513 23975,9480 23995,9446 24004,9410 24004,9370 24004,9326 23990,9288 23962,9255 23934,9223 23899,9203 23859,9195 23853,9194 23850,9192 23850,9187 23850,9170 23876,9143 23928,9105 23980,9066 24018,9047 24043,9047 24053,9047 24067,9051 24083,9057 24100,9064 24118,9075 24138,9089 24157,9102 24174,9122 24187,9149 24201,9176 24208,9205 24208,9238 Z"/>
   </g>
  </g>
  <g class="com.sun.star.drawing.ClosedBezierShape">
   <g id="id28">
    <rect class="BoundingBox" stroke="none" fill="none" x="24352" y="8435" width="1400" height="938"/>
    <path fill="rgb(0,0,0)" stroke="none" d="M 25493,9189 C 25531,9189 25558,9187 25573,9183 25589,9179 25607,9171 25629,9157 25682,9122 25719,9104 25739,9104 25747,9104 25751,9107 25751,9112 25751,9136 25694,9183 25581,9254 25516,9295 25466,9321 25432,9333 25398,9346 25353,9352 25299,9352 25283,9352 25218,9350 25103,9345 24988,9341 24872,9339 24756,9339 24651,9339 24569,9341 24511,9345 24470,9363 24439,9372 24417,9372 24406,9372 24401,9369 24401,9363 24401,9357 24406,9349 24417,9340 24428,9332 24441,9323 24455,9314 24468,9305 24482,9291 24496,9271 24511,9251 24520,9228 24524,9202 24525,9195 24526,9164 24527,9110 24528,9056 24529,9003 24529,8952 L 24530,8877 C 24530,8780 24517,8709 24491,8662 24465,8616 24435,8592 24403,8592 24400,8592 24396,8593 24391,8594 24387,8596 24382,8597 24378,8599 24374,8600 24370,8601 24366,8602 24361,8603 24358,8603 24356,8602 24353,8601 24352,8599 24352,8595 24352,8584 24364,8566 24388,8541 24412,8515 24443,8491 24480,8469 24517,8447 24549,8436 24578,8436 24604,8436 24627,8445 24648,8463 24668,8481 24685,8504 24697,8533 24709,8562 24718,8592 24724,8621 24731,8651 24734,8681 24736,8710 24785,8656 24836,8609 24889,8571 24942,8533 24991,8504 25036,8486 25082,8467 25122,8454 25156,8447 25191,8439 25223,8435 25253,8435 25344,8435 25423,8469 25488,8538 25553,8606 25585,8680 25585,8761 25585,8815 25569,8872 25537,8931 25505,8990 25469,9040 25429,9082 25388,9123 25347,9159 25304,9188 25338,9188 25376,9188 25417,9188 25458,9189 25484,9189 25493,9189 Z M 25380,8895 C 25380,8811 25348,8738 25284,8677 25220,8615 25154,8584 25085,8584 25060,8584 25035,8587 25012,8592 24988,8597 24968,8603 24951,8608 24934,8614 24917,8624 24898,8639 24879,8653 24865,8665 24855,8672 24845,8680 24832,8695 24816,8716 24800,8737 24789,8751 24784,8758 24779,8765 24768,8781 24752,8804 24746,8813 24742,8820 24739,8824 24740,9038 24744,9162 24749,9195 24848,9190 25005,9188 25223,9188 25223,9187 25229,9182 25239,9173 25249,9163 25257,9155 25264,9147 25272,9139 25281,9128 25294,9114 25306,9100 25317,9085 25326,9070 25335,9056 25344,9039 25352,9021 25361,9003 25368,8983 25372,8961 25377,8939 25380,8917 25380,8895 Z"/>
   </g>
  </g>
 </g>
</svg>